<svg width="240" height="240" viewBox="0 0 240 240" xmlns="http://www.w3.org/2000/svg" fill="none">
    <rect width="240" height="240" fill="#111827"/> <!-- dark gray background -->
  
    <circle cx="120" cy="120" r="100" fill="#1F2937" /> <!-- inner soft dark circle -->
  
    <!-- Leaf in dark-friendly color -->
    <path d="M140 80 C130 60, 100 60, 90 80 C80 100, 90 140, 120 150 C150 140, 160 100, 140 80 Z"
          fill="#6EE7B7" stroke="#10B981" stroke-width="2"/>
  
    <!-- Dimmed sun -->
    <circle cx="180" cy="50" r="18" fill="#FACC15" stroke="#FBBF24" stroke-width="3" />
    <line x1="180" y1="20" x2="180" y2="10" stroke="#FBBF24" stroke-width="2" />
    <line x1="180" y1="80" x2="180" y2="90" stroke="#FBBF24" stroke-width="2" />
    <line x1="150" y1="50" x2="140" y2="50" stroke="#FBBF24" stroke-width="2" />
    <line x1="210" y1="50" x2="220" y2="50" stroke="#FBBF24" stroke-width="2" />
    <line x1="160" y1="30" x2="153" y2="23" stroke="#FBBF24" stroke-width="2" />
    <line x1="200" y1="30" x2="207" y2="23" stroke="#FBBF24" stroke-width="2" />
    <line x1="160" y1="70" x2="153" y2="77" stroke="#FBBF24" stroke-width="2" />
    <line x1="200" y1="70" x2="207" y2="77" stroke="#FBBF24" stroke-width="2" />
  </svg>
  